<svg version="1.2" xmlns="http://www.w3.org/2000/svg" viewBox="0 0 720 800" width="1080" height="1200">
	<title>rainbow_cards_01-ai</title>
	<defs>
		<linearGradient id="g1" x2="1" gradientUnits="userSpaceOnUse" gradientTransform="matrix(626.478,0,0,215.161,48.067,27.668)">
			<stop offset="0" stop-color="#e0dec1"/>
			<stop offset=".315" stop-color="#f5f2d2"/>
			<stop offset=".758" stop-color="#f5f2d2"/>
			<stop offset="1" stop-color="#e0dec1"/>
		</linearGradient>
	</defs>
	<style>
		.s0 { fill: url(#g1) } 
		.s1 { fill: #aa10d1 } 
		.s2 { fill: #1ca2eb } 
		.s3 { fill: #fbe100 } 
		.s4 { fill: #ff9900 } 
		.s5 { fill: #e1004e } 
		.s6 { fill: #acbd00 } 
	</style>
	<g id="Layer 3">
		<g id="&lt;Group&gt;">
			<path id="&lt;Path&gt;" class="s0" d="m48.1 242.8h626.4v-215.1h-626.4z"/>
		</g>
		<g id="&lt;Clip Group&gt;">
			<g id="&lt;Group&gt;">
				<g id="&lt;Group&gt;">
					<g id="&lt;Group&gt;">
						<path id="&lt;Compound Path&gt;" fill-rule="evenodd" class="s1" d="m667.8 49.2q-3.3 3.4-6.9 6.6 3.4-3 6.6-6.2c-0.6 0.7-0.8 1-1.4 1.7-26.1 25.8-60.3 42.1-98.1 44.8-0.3-0.2-1-0.5-1.4-0.6-94.3 2.1-178.6-47.9-268.4-61.6-3.3-0.5-6.8-0.9-10-1.2-4.2-1.2-8-2.1-9 0 3.8 0.9 5.7 1.3 10.4 1.3 3.4 0.4 6.8 0.8 10.1 1.4 88.4 14.5 172 61.4 264.6 60.9-90 0.5-171.8-43.2-257.2-59q-1.3-0.2-2.6-0.4-4.1-0.7-8.2-1.3-4.1-0.6-8.2-1c-31.9-6.5-58.9 1.2-90 4.9-2.5 0.3-2.7-2.6-3.8-4.6 0.6-3.2 1.9-5.9 3.7-8.1h125.4c91.7 25.5 189 82.2 282.7 58 5.8-1.5 17.8-6.2 23.5-9.1 0.6-0.3 1.2-0.6 1.8-0.9 15.5-8 29.4-18.8 41.2-31.1-1.9 2.2-2.8 3.3-4.8 5.5zm-37.6 28.3q0.3-0.2 0.6-0.4-0.3 0.2-0.6 0.4zm-251-25.4c47.5 15.7 95.8 34.3 145.2 40.6-48.8-6.7-97.4-25.1-145.2-40.6zm194.4 42.2c16.1-1.1 31.8-5.3 46.5-11.9q-8.9 4-18.4 6.7c-11.6 3.2-23.4 5-35.3 5.6q3.6-0.1 7.2-0.4zm50.1-13.5q0.6-0.3 1.2-0.6-0.6 0.3-1.2 0.6zm-1.6 0.7q0.8-0.4 1.6-0.7-0.8 0.3-1.6 0.7zm36.7-23.8q-2.5 2.1-5.1 4.2 2.6-2.1 5.1-4.2zm1.9-1.7q-0.9 0.8-1.9 1.7 1-0.9 1.9-1.7zm-13.3 10.7q-0.3 0.2-0.7 0.5 0.4-0.3 0.7-0.5zm0.9-0.7q-0.4 0.3-0.9 0.7 0.5-0.4 0.9-0.7zm3.8-2.8q-0.5 0.3-1 0.7 0.5-0.4 1-0.7zm1.3-1.1q-0.7 0.6-1.3 1.1 0.7-0.5 1.3-1.1zm-17.3 12q0.1-0.1 0.2-0.1-0.1 0-0.2 0.1z"/>
						<path id="&lt;Path&gt;" class="s2" d="m557.8 122.8c-86.7 12.2-171.6-22.1-256.3-17-3.1 0.2-6.3 0.6-9.4 1-4.1-0.2-7.8-0.3-8.3 1.8 3.6 0 5.5 0 9.9-1 3.1-0.3 6.3-0.6 9.5-0.8 83.7-3.8 167.3 27.7 252.7 16.9-82.9 10.5-164.3-18.2-245.6-16.6-0.8 0.1-1.6 0.1-2.4 0.1q-3.9 0.2-7.8 0.5-3.9 0.3-7.7 0.7c-31.3-1.1-59.8 31.3-85.5 26.7-1.4-0.3-3-1.2-4.2-2.5 1.7-16.7 22.5-22.7 36.1-28.7 2.3-0.6 4.5-1.2 6.8-1.7 15.9-3.7 32.1-6.6 48.1-7.9 3.2-0.2 6.5-0.3 9.7-0.3 95.9-0.1 197.3 47.3 290.1 15.1 5.6-2 17.2-7.5 22.8-10.7q0.8-0.5 1.7-1c8.9-5.3-10.9 9.4-26.6 15.5-22.9 8.8-48.5 12.3-73.7 12.4-45.6 0-93.3-10.4-139.9-17.2 62.2 9.5 125 24.1 186.5 12.9 26.4-4.9 23.7-4.6-4.8 2.1-0.4-0.1-1.2-0.2-1.7-0.3z"/>
						<path id="&lt;Path&gt;" class="s3" d="m307.1 75c-5.2-0.3-10.7-0.2-16.1-0.1-5.4 0.1-10.9 0.4-16.2 0.8-7.6 0.7-15.3 1.6-22.8 3.1-2.5 0.5-5 1-7.5 1.6-8.6 2.2-17.3 5.5-25.6 9.4-3 1.4-6.1 2.9-9 4.6-26.6 15.2-47.9 35.2-68.2 58.2 18.6-23.7 38-43.7 64-58.7 2.3-1.3 4.7-2.5 7-3.6 2.3-1 4.7-1.9 7-2.8 2.6-1 5.2-2 7.8-2.9 7.6-2.7 15.4-4.7 23.2-6.2q4.5-0.9 9-1.6c5.9-1 12.1-1.8 18.1-2.3 6.8-0.6 14-0.7 21-0.4 43.6 1.7 86.8 12.2 129.9 22-41-9.5-82.1-19.9-123.7-22.3-5.5-0.3-11.1-0.3-16.3-0.1-11.1 0.5-22.5 1.6-33.5 3.3-2.8 0.4-5.6 1-8.2 1.4-8.9 1.6-18.1 3.7-26.6 7-3.2 1.3-6.4 2.8-9.6 4.3-30.2 14.2-62.2 61.1-72.9 60.9-7.6 0 56.6-63.9 68-71.9 2.8-1.6 5.5-3 8.1-4.3q3.9-1.9 7.6-3.6c3.2-1 6.3-1.8 9.5-2.3 3-0.5 6-0.7 9.1-0.8 3.2-0.5 6.3-0.9 9.2-1.3 6-0.8 11.5-1.6 16-2.6 6-0.5 12.2-0.9 18.2-0.8 31.1 0.3 61.8 5.7 92.6 12.3-31.2-6.8-62.1-12.3-93.5-12.5-5.9-0.1-12.3 0.6-18 0.9-5.1 0.3-10.4 0.6-15.5 1.4-2.5 0.4-5.1 1-7.5 1.5-2.2 0.4-4.6 0.7-6.8 1.2-2.3 0.5-4.5 1.1-6.7 1.7-2.4 0.6-4.9 1.4-7.3 2.2-2.4 0.9-4.8 1.9-7.2 3-19.8 9.3-24.2 9.2-6.5-0.3 2.4-1.3 4.8-2.6 7.2-3.7 4.9-2.2 9.8-4 14.6-5.2 2.3-0.6 4.6-1 6.9-1.3q3.5-0.5 6.9-0.6 3.1-0.5 6.1-0.9c10.3-1.3 20.9-2.1 30.6-2.4 5-0.2 10.5 0.1 15.7 0.5 37.9 3 75 12.3 112 22.2 50.4 13.3 102.6 27.8 152.9 23 36-3.5 65.6-17.8 94.3-41.1-2.4 2.8-3.6 4.3-6 7.1-56.4 44-119.5 45.3-187.3 31.8-50.6-10-102.2-26-154-28.8z"/>
						<path id="&lt;Path&gt;" class="s4" d="m226.4 51.7c3.5-2.1 10.3-0.2 14.4-2.3q2.8-0.5 5.6-0.8c3.7-0.4 7.4-0.5 10.8-0.6 5.8 0 11.8 0 17.7 0.1 5.9 0.1 11.8 0.2 17.7 0.2 6.1 0.5 12.2 1.1 18.2 2 18.4 2.8 37.2 6.7 55.1 11.4 37.3 9.7 75.1 22.2 113.4 31q11 2.5 22.2 4.5c-3.2-0.4-0.8 0.2 0.2 0.4-69.9-13.2-136.5-40.9-207-48.3-4.1-0.5-8.4-0.8-12.5-0.9-5-0.2-10.2-0.1-15.2-0.1-5 0.1-10 0.4-14.7 0.6-2.3 0.1-4.7 0.2-6.9 0.5-2.3 0.2-4.5 0.6-6.7 1-3.8 1.2-7.5 1.4-12 2.1-0.1-0.3-0.3-0.6-0.3-0.8z"/>
						<path id="&lt;Path&gt;" class="s4" d="m407.2 83c-37-9.9-74.1-19.2-112-22.2-5.2-0.4-10.5-0.6-15.7-0.5-10.4 0.1-20.9 0.9-31 2.3-2 0.2-4.1 0.6-6 0.9-2.7 0.3-5.5 0.7-8.1 1.1q-4 0.7-7.8 1.5-3.8 0.8-7.5 1.9c-2.5 0.7-5 1.6-7.4 2.4-22.6 7.8-26.1 8.6-5.1-0.4q3.1-1.4 6.2-2.5c2.1-0.8 4.2-1.6 6.3-2.3 2.4-0.8 4.7-1.4 7.1-1.9 2.1-0.5 4.4-0.9 6.6-1.3q3.8-0.6 7.8-1.3 2.9-0.4 5.9-0.8c10-1.3 20.4-2.1 30.2-2.4 5.1-0.1 10.5 0.2 15.6 0.6 27.1 2.1 53.8 7.7 80.5 14.2-26.5-6.6-53-12.2-79.9-14.4-5.2-0.4-10.5-0.6-15.7-0.5-10 0.1-19.9 0.8-29.6 2.1-1.9 0.2-3.8 0.6-5.7 0.8-1.6 0.2-3.4 0.5-5.2 0.8-1.8 0.4-3.7 0.7-5.6 1.2-1.6 0.5-3.5 1.1-5.4 1.8-2 0.7-4.1 1.4-6.3 2.1-1.8 0.6-3.8 1.3-5.6 1.9-1.8 0.6-3.5 1.2-5.2 1.7-19 10.5-25.4 3.2-5.8-7 2.3-1.1 4.6-2.7 6.9-3.9 2.3-1.2 4.4-2.2 5.7-3 1.9-0.9 3.7-1.6 5.7-2 2-0.5 4-0.7 6.2-0.6-0.6-0.4-0.9-0.6-1.5-1 3.8-1.6 9.3-1.8 13.4-2 1.7-0.2 3.5-0.4 5.4-0.5 6.9-0.6 14.2-1.1 21.1-1.3-6.7-0.3-13.2 0.3-19.1 1.4-3.1 0.7-6.2 1.4-9 2.1-2.9 0.7-4.8 0.8-8.5 2.2 2.7-0.8 5-1.2 7.2-1.6 2.3-0.4 4.5-0.9 7.1-1.7q3.7-0.8 7.6-1.3c2.6-0.4 5.3-0.5 7.9-0.6 5-0.2 10.3-0.4 15.5-0.3 5.1 0 10.3 0.2 15.4 0.6 5.1 0.3 10.4 0.9 15.6 1.6 32.1 4.6 63.7 12.9 95.1 21.8-18.5-5.3-36.9-10.3-55.6-14.9 101.9 24.8 217.6 78.2 307.2 7.6 2-1.5 4.7-3.9 7.5-6.6-2.1 2.4-3.1 3.6-5.2 6.1-28.7 23.3-58.3 37.6-94.3 41.1-50.3 4.8-102.5-9.7-152.9-23z"/>
						<path id="&lt;Path&gt;" class="s5" d="m344.9 57.8c-11.8-2.8-23.8-5-35.5-6.6q-8.8-1.2-17.5-1.9c-5.3-0.1-10.6-0.2-16-0.3-5.3-0.1-10.7-0.2-16.1 0-2.5 0.3-5 0.5-7.6 0.7-2.6 0.2-5.3 0.5-7.9 0.8-5.5-0.2-9.7 2.2-15.5 3.8 1.9-0.2 4-1.5 6.6-1.5 2.2-0.4 4.4-0.7 5.8-1 2.1-0.5 4.4-0.8 6.5-1.2 2.2-0.5 4.3-0.9 6.4-1.4q6.2-0.8 12.6-1c4.3-0.1 8.8 0 13.2 0.2 4.8 0.2 10 0.4 14.8 0.9 70.2 7 137.1 35.1 207 48.3-1-0.2-3.4-0.8-0.2-0.4-7.4-1.3-14.9-2.8-22.2-4.5-38-8.9-75.8-21.4-113.4-31-18.1-4.6-36.7-8.6-55.1-11.4-6-0.9-12.1-1.5-18.2-2-5.9 0-11.8-0.1-17.7-0.1-5.9-0.1-12-0.4-17.6-0.1-3.6 0.2-7.3 0.5-11 0.8q-2.7 0.2-5.5 0.5c-6.8 1.7-13.5 3.2-19.9 5-2.3 0.7-4.5 1.4-6.8 2.2-5.3 1.7-8.8 2.5-14.3 5.4 5.5-2.9 9.6-6.4 14.4-8.8 2.2-1.1 4.6-1.9 7-2.7 6.9-2.1 14.2-3 21.3-3.6 2.5-0.3 5.1-0.4 7.6-0.6 5.9-0.4 12-0.6 18-0.6 5.9-0.1 11.9-0.2 17.3-0.1 5 0.2 10.4 0.7 15.5 1.4 32.1 4.2 63.6 12.6 94.9 21.5-29.6-8.5-59.4-16.7-89.6-21.3-5.8-0.9-11.8-1.6-17.5-1.9-5.6-0.3-11.4-0.4-17-0.3-5.6 0-11.2 0.3-16.7 0.7-2.7 0.1-5.4 0.4-8 0.7-6.5 0.2-16.3 3-24.3 5.4-2.6 0.7-5.1 1.4-7.2 1.8-3.9-0.6-9.2 0.4-6.7-3.7-0.2-2 0.4-3.8 1.7-5.5 0.1-3.3 7.6-5.4 9.4-5.5 44.4-8.6 85.6-3.2 128.1 7.7 3.5 0.9 7.1 1.9 10.6 2.9 74.4 21.6 150.2 55.5 230.4 43.7-79.7 11.6-154.8-22-228.7-43.7-3.3-1-6.8-1.9-10.1-2.8-12.5-3.7-25.6-7.6-38.9-9.1 11.5-0.9 25.3 4.6 37.4 7.6 3.3 0.8 6.7 1.8 10.1 2.8 75 22 151.1 57.4 232.2 44.3 0.4 0.1 1.2 0.1 1.7 0.1 29.3-8.3 50.8-21.1 73.1-40.7-2.5 2.8-3.7 4.2-6.2 7.1-2.8 2.7-5.5 5.1-7.5 6.6-89.6 70.6-205.9 16.2-307.2-7.6z"/>
						<path id="&lt;Path&gt;" class="s2" d="m469.4 75.4c-31.1-10-61.7-21.3-92.5-31.9-3.3-1.1-6.7-2.2-9.8-3.3-14.5-5-28.8-9.6-43.3-13.4h-1.2c1.6 0.4 3.3 0.7 4.9 1.1 13.3 3.3 26.7 8.9 39.9 13.5 3.1 1 6.6 2.2 9.9 3.3 30.7 10.5 61.3 21.6 92.4 31.2-1.1-0.5-3.6-1.4-0.3-0.5z"/>
						<path id="&lt;Path&gt;" class="s2" d="m331 26.8c8.8 2.5 17.5 5.3 26.3 8.4-7.7-3.1-15.3-5.9-23-8.4z"/>
						<path id="&lt;Path&gt;" class="s2" d="m366.8 39.4c-3.4-1.1-6.9-2.2-10.2-3.3q-5.5-1.9-11.2-3.6 4.5 1.6 9 3.4c3.5 1.1 7.1 2.3 10.7 3.5 73.9 24.7 150.2 60.7 231.2 47.9-80.5 12.6-156.1-23-229.5-47.9z"/>
						<path id="&lt;Path&gt;" class="s2" d="m325.6 26.8c6.7 1.7 13.3 3.6 19.8 5.7-5.6-2.1-11.2-3.9-17-5.7z"/>
						<path id="&lt;Path&gt;" class="s2" d="m673.9 42.3c-5.1 4.8-10.2 9.4-15.6 13.7 4.8-3.8 9.6-7.9 14.3-12.3 0.5-0.5 0.8-0.8 1.3-1.4z"/>
						<path id="&lt;Path&gt;" class="s2" d="m653 60.1q-0.6 0.5-1.3 1c-6.3 4.8-13 9.2-20.3 13.1q-4 2.2-8.3 4.1c12.8-5.6 24.4-13.4 35.2-22.3q-2.2 1.8-4.4 3.5-0.5 0.3-0.9 0.6z"/>
						<path id="&lt;Compound Path&gt;" fill-rule="evenodd" class="s2" d="m612.1 82.4q1.2-0.4 2.4-0.7-1.4 0.4-2.8 0.9-5.7 2.1-11.8 3.9c-0.4 0-1.2 0-1.7 0q-4.8 0.8-9.5 1.4c-10.1 1.5-20.4 2-30.4 1.7-1.5 0-3-0.1-4.5-0.2-65.4-2.2-127.7-30.9-188.5-51.5-3.4-1.1-6.9-2.2-10.2-3.3-8.4-2.7-16.7-5.8-25.3-7.8h30.2c7.4 3 13.8 5.6 18.7 7.4q5.2 2 10.5 4c77.2 29.5 165.7 69.5 244.4 33.2 5.6-2.6 16.8-9.8 22.2-13.9q0.9-0.6 1.7-1.3c8.7-6.7 12.9-10.5 21.2-19.5-1.8 2.1-2.7 3.1-4.5 5.2-6.8 6.4-13.4 12.2-20.3 17.6q-0.5 0.3-0.9 0.6-0.6 0.5-1.3 1c-12.1 8.8-24.8 15.8-39.6 21.3zm-100.3 1.6c-33.2-6.8-65.4-18.6-96.8-29.8 31.6 11.4 64 23.1 96.8 29.8z"/>
						<path id="&lt;Path&gt;" class="s2" d="m512.7 84.2q3.4 0.6 6.8 1.2-3.4-0.6-6.8-1.2z"/>
						<path id="&lt;Path&gt;" class="s2" d="m623 78.3q-4.2 1.8-8.5 3.4 4.3-1.6 8.5-3.4z"/>
						<path id="&lt;Path&gt;" class="s6" d="m679.8 34.8c-47.5 47.9-113.9 53.4-178.2 33.4-36.3-11.2-71.5-26.5-106.7-41.4h-26.8q0.2 0.1 0.4 0.2-0.2-0.1-0.5-0.2h-4.7q5.2 2.1 10.4 4.1c3.1 1.2 6.6 2.5 9.9 3.7 30.9 11.8 61.6 24 93 34.7-3.2-0.9-0.7 0.1 0.3 0.6-31.4-10.4-62.1-22.4-92.9-34.1-3.4-1.3-6.8-2.6-10-3.8-4.3-1.6-8.6-3.4-12.9-5.2h-1q9.3 3.6 18.6 7.4 5.2 2 10.5 4c77.2 29.5 165.7 69.5 244.4 33.2 5.6-2.6 16.8-9.8 22.2-13.9q0.9-0.6 1.7-1.3 3.6-2.8 7.3-5.9 7.3-6.4 14.5-14.2c0.2-0.3 0.4-0.6 0.7-0.9q-0.1-0.2-0.2-0.4z"/>
						<path id="&lt;Path&gt;" class="s2" d="m332.9 91.3c-11.4-1-22.8-1.4-34.1-1.1-2.2 0.1-4.5 0.2-6.7 0.3-14 0.7-28.3 2.2-42 5.7-2.7 0.6-5.5 1.4-8.1 2.3-19.2 6.4-35.4 16.8-51 29.6 15.6-12.8 31.7-23.1 50.8-29.6 2.6-0.9 5.4-1.7 8-2.3 13.3-3.4 27-5.2 40.7-5.9 2.9-0.2 5.7-0.3 8.6-0.4 11.4-0.2 22.7 0.4 33.8 1.4z"/>
						<path id="&lt;Path&gt;" class="s2" d="m437.4 111c-45.6-8.5-91.2-18.2-137.1-17.5-3 0.1-6.2 0.3-9.2 0.5-17.7 1.2-33.2 3.6-49.5 9.1-2.6 0.9-5.4 2-7.9 3.2-14.3 6.5-27.2 15.3-40 24.4 13-13.5 30.1-21.9 47.6-29q4-1.4 8.1-2.5c13.6-3.6 27.9-5.4 41.9-6.4 3-0.2 6.1-0.4 9.2-0.5 45.8-0.7 91.2 9.1 136.6 18-3.2-0.4-0.8 0.3 0.3 0.7z"/>
						<path id="&lt;Path&gt;" class="s6" d="m593.5 109.1c-92.8 32.2-194.2-15.2-290.1-15.1-3.2 0-6.5 0.1-9.7 0.3-17.6 1.3-34.5 4-51.2 9.1-2.7 0.8-5.5 1.9-8.2 3-14.8 6.3-27.6 14.6-40.6 24.3 15.6-11.7 30.3-21.2 48-28.1 2.6-0.9 5.4-1.7 8-2.5 13.4-3.7 27.7-5.4 41.4-6.1 3-0.2 6.2-0.4 9.2-0.5 45.9-0.7 91.5 9 137.1 17.5-1.1-0.4-3.5-1.1-0.3-0.7-45.4-8.9-90.8-18.7-136.6-18-3.1 0.1-6.3 0.3-9.2 0.5-16.6 1.5-32.8 4.4-48.6 9.2-2.6 0.8-5.3 1.8-7.9 2.8-14.8 5.8-27.6 14.4-40.7 22.9 13.6-14.3 27.3-24.4 47-30.1 2.7-0.8 5.5-1.5 8.3-2.1 13.9-2.9 28.4-4.2 42.7-5q3.3-0.2 6.7-0.3c11.3-0.3 22.7 0.1 34.1 1.1-11.1-1-22.4-1.6-33.8-1.4q-4.3 0.1-8.6 0.4c-14.1-0.4-28.2 2.4-41.4 7-2.7 1-5.5 2-8.1 3-16 6.1-31.4 14.8-46.4 22.9-2 1.1-4.1 2.1-6.1 3-6.9 3.3-24.3 20.7-25.5 18.7 2.4-20.9 26.8-36.6 44.3-46.8 2.8-1.4 5.7-2.6 8.4-3.7q4.1-1.7 8.2-3.1c8.2-2.8 16.6-5.4 24.3-7.5 2.2-0.6 4.6-1.1 6.9-1.5 6.8-1.4 13.5-2.4 20-2.7q3.4-0.6 6.5-1.4-2.9 0.1-5.8 0.4-3 0.2-5.9 0.5c-5.6 0.1-10.5 1-15.3 2.2-2.5 0.6-5 1.3-7.5 1.9-8.4 2.2-17 5-25.3 8.7q-4.2 1.9-8.4 4.1c-2.3 1.1-4.6 2.3-6.7 3.6-16.6 10.3-11.1 3.9 5.9-9.4 1.8-0.7 3.5-1.5 5.5-2.2 10.6-4.1 22.3-6.7 32.4-8.6 2.7-0.6 5.7-1 8.5-1.4 5.6-0.8 11.1-1.7 15.8-2.3 5.2-0.6 10.8-0.7 16.2-0.8 5.4-0.1 10.9-0.2 16.1 0.1 51.8 2.8 103.4 18.8 154 28.8 67.8 13.5 130.9 12.2 187.3-31.8-3.2 3.7-4.8 5.6-7.9 9.4q-7.5 6.2-15 11.2-3.8 2.5-7.5 4.8-0.9 0.5-1.7 1c-5.6 3.2-17.2 8.7-22.8 10.7z"/>
					</g>
				</g>
				<path id="&lt;Path&gt;" class="s1" d="m182.2 45.2c3.8-1 6.1-4.9 5.2-8.7-1-3.8-4.9-6.1-8.7-5.2-3.9 1-6.2 4.9-5.2 8.7 1 3.9 4.9 6.2 8.7 5.2z"/>
				<path id="&lt;Path&gt;" class="s2" d="m201.1 150.3c4.3-1.1 6.9-5.4 5.8-9.7-1.1-4.3-5.5-6.9-9.7-5.8-4.3 1.1-6.9 5.4-5.8 9.7 1.1 4.3 5.4 6.9 9.7 5.8z"/>
				<path id="&lt;Path&gt;" class="s5" d="m158.5 102.5c2.4-0.6 3.8-3 3.2-5.4-0.6-2.4-3-3.8-5.4-3.2-2.4 0.6-3.8 3-3.2 5.4 0.6 2.4 3 3.8 5.4 3.2z"/>
				<path id="&lt;Path&gt;" class="s3" d="m122.9 171.7c6.1-1.6 9.8-7.8 8.2-13.9-1.5-6.2-7.8-9.9-13.9-8.3-6.1 1.6-9.8 7.8-8.3 13.9 1.6 6.1 7.8 9.8 14 8.3z"/>
				<path id="&lt;Path&gt;" class="s2" d="m166.8 77.4c2.2-0.5 3.6-2.8 3-5.1-0.5-2.2-2.8-3.6-5.1-3-2.2 0.6-3.6 2.9-3 5.1 0.6 2.3 2.8 3.6 5.1 3z"/>
				<path id="&lt;Path&gt;" class="s6" d="m177.3 162.8c5.3-1.3 8.5-6.7 7.1-11.9-1.3-5.3-6.7-8.5-11.9-7.1-5.3 1.3-8.4 6.7-7.1 11.9 1.3 5.3 6.7 8.5 11.9 7.1z"/>
				<path id="&lt;Path&gt;" class="s6" d="m139.4 119.1c2.2-0.6 3.6-2.9 3-5.1-0.5-2.2-2.8-3.6-5.1-3-2.2 0.5-3.6 2.8-3 5.1 0.6 2.2 2.9 3.6 5.1 3z"/>
				<path id="&lt;Path&gt;" class="s2" d="m136.3 142.5c3.2-0.8 5.1-4 4.3-7.2-0.8-3.2-4-5.1-7.2-4.3-3.2 0.8-5.2 4-4.4 7.2 0.9 3.2 4.1 5.1 7.3 4.3z"/>
				<path id="&lt;Path&gt;" class="s5" d="m180 179.3c2.5-0.6 4-3.1 3.4-5.7-0.6-2.5-3.2-4-5.7-3.3-2.5 0.6-4 3.1-3.4 5.7 0.6 2.5 3.2 4 5.7 3.3z"/>
				<path id="&lt;Path&gt;" class="s4" d="m155.3 157.7c2.4-0.7 3.9-3.1 3.2-5.5-0.6-2.5-3-3.9-5.5-3.3-2.4 0.6-3.8 3.1-3.2 5.5 0.6 2.4 3 3.9 5.5 3.3z"/>
				<path id="&lt;Path&gt;" class="s3" d="m154.5 69.5c2.7-0.6 4.3-3.3 3.6-5.9-0.7-2.6-3.4-4.2-6-3.6-2.6 0.7-4.2 3.4-3.5 6 0.7 2.6 3.3 4.2 5.9 3.5z"/>
				<path id="&lt;Path&gt;" class="s2" d="m164.1 53.8c1.7-0.4 2.7-2.1 2.3-3.8-0.4-1.7-2.1-2.7-3.8-2.3-1.7 0.5-2.7 2.2-2.3 3.8 0.4 1.7 2.1 2.7 3.8 2.3z"/>
				<path id="&lt;Path&gt;" class="s1" d="m153.2 90.9c3.2-0.8 5.1-4.1 4.3-7.3-0.8-3.2-4.1-5.1-7.3-4.3-3.2 0.8-5.1 4.1-4.3 7.3 0.8 3.2 4.1 5.1 7.3 4.3z"/>
				<path id="&lt;Path&gt;" class="s6" d="m122.1 145.3c2.5-0.6 4.1-3.2 3.4-5.8-0.6-2.5-3.2-4.1-5.8-3.4-2.6 0.6-4.1 3.2-3.5 5.8 0.7 2.5 3.3 4.1 5.9 3.4z"/>
				<path id="&lt;Path&gt;" class="s2" d="m172.9 101.2c1.8-0.5 3-2.4 2.5-4.3-0.5-1.9-2.4-3-4.3-2.5-1.8 0.5-2.9 2.4-2.5 4.2 0.5 1.9 2.4 3 4.3 2.6z"/>
				<path id="&lt;Path&gt;" class="s5" d="m131.1 114.2c1.4-0.4 2.3-1.9 1.9-3.4-0.3-1.4-1.8-2.3-3.3-2-1.5 0.4-2.3 1.9-2 3.4 0.4 1.4 1.9 2.3 3.4 2z"/>
				<path id="&lt;Path&gt;" class="s4" d="m164.6 65c1.9-0.4 3-2.3 2.5-4.2-0.5-1.8-2.3-2.9-4.2-2.5-1.8 0.5-3 2.4-2.5 4.2 0.5 1.9 2.4 3 4.2 2.5z"/>
				<path id="&lt;Path&gt;" class="s3" d="m165.4 203.4c1.6-0.4 2.6-2.1 2.2-3.7-0.4-1.6-2.1-2.5-3.7-2.1-1.6 0.4-2.5 2-2.1 3.6 0.4 1.6 2 2.6 3.6 2.2z"/>
				<path id="&lt;Path&gt;" class="s2" d="m162.8 168.2c1.5-0.4 2.5-1.9 2.1-3.4-0.4-1.5-1.9-2.4-3.4-2-1.5 0.4-2.5 1.9-2.1 3.4 0.4 1.5 1.9 2.4 3.4 2z"/>
				<path id="&lt;Path&gt;" class="s1" d="m102.9 160.6c2.3-0.6 3.7-2.9 3.1-5.2-0.6-2.3-2.9-3.6-5.2-3.1-2.3 0.6-3.7 3-3.1 5.2 0.6 2.3 2.9 3.7 5.2 3.1z"/>
				<path id="&lt;Path&gt;" class="s6" d="m143 60.7c1.3-0.3 2-1.6 1.7-2.8-0.3-1.3-1.6-2-2.8-1.7-1.2 0.3-2 1.6-1.7 2.8 0.3 1.3 1.6 2 2.8 1.7z"/>
				<path id="&lt;Path&gt;" class="s2" d="m144.4 160.4c1.4-0.3 2.2-1.7 1.9-3.1-0.4-1.4-1.8-2.3-3.2-1.9-1.4 0.3-2.2 1.8-1.9 3.1 0.4 1.4 1.8 2.3 3.2 1.9z"/>
				<path id="&lt;Path&gt;" class="s5" d="m157.4 120.6c1.1-0.3 1.7-1.4 1.5-2.5-0.3-1.1-1.4-1.7-2.5-1.4-1.1 0.2-1.8 1.3-1.5 2.4 0.3 1.1 1.4 1.8 2.5 1.5z"/>
				<path id="&lt;Path&gt;" class="s4" d="m125.7 134.7c1.6-0.4 2.6-2 2.1-3.7-0.4-1.6-2-2.5-3.6-2.1-1.7 0.4-2.6 2-2.2 3.6 0.4 1.7 2 2.6 3.7 2.2z"/>
				<path id="&lt;Path&gt;" class="s3" d="m146.3 110.5c1.7-0.5 2.8-2.3 2.3-4-0.4-1.8-2.2-2.8-4-2.4-1.7 0.5-2.8 2.2-2.3 4 0.4 1.7 2.2 2.8 4 2.4z"/>
				<path id="&lt;Path&gt;" class="s2" d="m109.6 147.3c1.1-0.3 1.8-1.4 1.5-2.5-0.3-1.2-1.4-1.8-2.6-1.6-1.1 0.3-1.8 1.5-1.5 2.6 0.3 1.1 1.5 1.8 2.6 1.5z"/>
				<path id="&lt;Path&gt;" class="s6" d="m154.8 164.4c1.3-0.3 2.2-1.7 1.8-3.1-0.3-1.4-1.7-2.3-3.1-1.9-1.4 0.3-2.3 1.8-1.9 3.2 0.3 1.4 1.8 2.2 3.2 1.8z"/>
				<path id="&lt;Path&gt;" class="s6" d="m118.7 118.7c2.6-0.7 4.1-3.3 3.5-5.9-0.7-2.5-3.3-4.1-5.9-3.5-2.6 0.7-4.1 3.3-3.5 5.9 0.7 2.6 3.3 4.2 5.9 3.5z"/>
				<path id="&lt;Path&gt;" class="s2" d="m105.9 183.9c2.9-0.7 4.7-3.6 3.9-6.5-0.7-2.9-3.7-4.7-6.5-3.9-2.9 0.7-4.7 3.7-3.9 6.5 0.7 2.9 3.6 4.7 6.5 3.9z"/>
				<path id="&lt;Path&gt;" class="s5" d="m139.4 175c2.3-0.6 3.6-2.9 3.1-5.2-0.6-2.2-2.9-3.6-5.2-3-2.3 0.6-3.6 2.9-3.1 5.1 0.6 2.3 2.9 3.7 5.2 3.1z"/>
				<path id="&lt;Path&gt;" class="s4" d="m182.7 87.1c4.1-1 6.6-5.2 5.6-9.4-1.1-4.1-5.3-6.6-9.4-5.5-4.1 1-6.6 5.2-5.6 9.4 1.1 4.1 5.3 6.6 9.4 5.5z"/>
				<path id="&lt;Path&gt;" class="s3" d="m106.2 131.7c4.1-1.1 6.6-5.3 5.6-9.4-1.1-4.1-5.3-6.6-9.4-5.6-4.1 1.1-6.6 5.3-5.6 9.4 1.1 4.1 5.3 6.6 9.4 5.6z"/>
				<path id="&lt;Path&gt;" class="s2" d="m148.7 194.6c1.5-0.3 2.4-1.9 2-3.4-0.4-1.5-1.9-2.4-3.4-2-1.5 0.3-2.5 1.9-2.1 3.4 0.4 1.5 2 2.4 3.5 2z"/>
				<path id="&lt;Path&gt;" class="s6" d="m112.5 198.9c3.5-0.9 5.7-4.5 4.8-8.1-0.9-3.5-4.5-5.7-8.1-4.8-3.5 0.9-5.7 4.5-4.8 8.1 0.9 3.5 4.5 5.7 8.1 4.8z"/>
				<path id="&lt;Path&gt;" class="s1" d="m149.4 201.8c1.5-0.4 2.5-1.9 2.1-3.4-0.4-1.5-1.9-2.4-3.5-2.1-1.5 0.4-2.4 2-2 3.5 0.4 1.5 1.9 2.4 3.4 2z"/>
				<path id="&lt;Path&gt;" class="s2" d="m136.8 100.4c2.2-0.5 3.5-2.7 2.9-4.9-0.5-2.1-2.7-3.4-4.9-2.9-2.1 0.6-3.4 2.7-2.9 4.9 0.6 2.2 2.8 3.5 4.9 2.9z"/>
				<path id="&lt;Path&gt;" class="s5" d="m91.1 150.1c1.7-0.4 2.7-2.1 2.3-3.8-0.4-1.7-2.2-2.7-3.9-2.3-1.7 0.4-2.7 2.2-2.2 3.9 0.4 1.6 2.1 2.7 3.8 2.2z"/>
				<path id="&lt;Path&gt;" class="s4" d="m79.4 169.1c1.7-0.5 2.7-2.1 2.2-3.7-0.4-1.7-2-2.7-3.7-2.3-1.6 0.5-2.6 2.1-2.2 3.8 0.5 1.6 2.1 2.6 3.7 2.2z"/>
				<path id="&lt;Path&gt;" class="s3" d="m133 86.4c1.8-0.4 2.9-2.2 2.4-4-0.4-1.8-2.2-2.8-4-2.4-1.8 0.5-2.8 2.3-2.4 4 0.5 1.8 2.3 2.9 4 2.4z"/>
				<path id="&lt;Path&gt;" class="s2" d="m111.6 97.6c1.1-0.2 1.8-1.4 1.5-2.5-0.3-1.2-1.5-1.8-2.6-1.5-1.1 0.2-1.8 1.4-1.5 2.5 0.3 1.1 1.4 1.8 2.6 1.5z"/>
				<path id="&lt;Path&gt;" class="s6" d="m133.3 75.2c2.2-0.5 3.5-2.7 2.9-4.9-0.5-2.1-2.7-3.4-4.9-2.9-2.1 0.6-3.4 2.8-2.9 4.9 0.6 2.2 2.8 3.5 4.9 2.9z"/>
				<path id="&lt;Path&gt;" class="s6" d="m171.7 89.7c1.8-0.4 2.8-2.2 2.4-3.9-0.5-1.7-2.2-2.8-4-2.3-1.7 0.4-2.7 2.2-2.3 3.9 0.4 1.7 2.2 2.8 3.9 2.3z"/>
				<path id="&lt;Path&gt;" class="s2" d="m177.6 57.8c1.2-0.4 2-1.6 1.7-2.9-0.4-1.3-1.6-2-2.9-1.7-1.3 0.3-2 1.6-1.7 2.9 0.3 1.2 1.6 2 2.9 1.7z"/>
				<path id="&lt;Path&gt;" class="s5" d="m92.7 129.7c0.9-0.2 1.5-1.2 1.3-2.2-0.3-1-1.3-1.6-2.3-1.3-0.9 0.2-1.5 1.2-1.3 2.2 0.3 1 1.3 1.6 2.3 1.3z"/>
				<path id="&lt;Path&gt;" class="s4" d="m145.6 128.3c1.3-0.4 2-1.6 1.7-2.9-0.3-1.2-1.6-2-2.8-1.7-1.3 0.4-2 1.6-1.7 2.9 0.3 1.2 1.6 2 2.8 1.7z"/>
				<path id="&lt;Path&gt;" class="s3" d="m118.3 179c1.1-0.2 1.8-1.3 1.5-2.4-0.3-1.1-1.4-1.7-2.4-1.5-1.1 0.3-1.8 1.4-1.5 2.5 0.3 1.1 1.4 1.7 2.4 1.4z"/>
				<path id="&lt;Path&gt;" class="s2" d="m163.1 179.5c1-0.2 1.6-1.2 1.3-2.2-0.2-1.1-1.3-1.7-2.3-1.4-1 0.2-1.6 1.3-1.3 2.3 0.2 1 1.2 1.6 2.3 1.3z"/>
				<path id="&lt;Path&gt;" class="s6" d="m89 179.3c1.5-0.4 2.4-1.9 2-3.5-0.4-1.5-1.9-2.4-3.5-2-1.5 0.3-2.4 1.9-2.1 3.5 0.4 1.5 2 2.4 3.6 2z"/>
				<path id="&lt;Path&gt;" class="s6" d="m150 46.6c0.8-0.2 1.3-1.1 1.1-1.9-0.2-0.8-1.1-1.4-1.9-1.1-0.8 0.2-1.3 1-1.1 1.9 0.2 0.8 1 1.3 1.9 1.1z"/>
				<path id="&lt;Path&gt;" class="s2" d="m83.2 162.8c0.9-0.2 1.5-1.2 1.2-2.1-0.2-1-1.2-1.5-2.1-1.3-0.9 0.2-1.5 1.2-1.3 2.1 0.3 1 1.2 1.5 2.2 1.3z"/>
				<path id="&lt;Path&gt;" class="s5" d="m97.2 175c0.7-0.2 1.2-1 1-1.7-0.2-0.7-1-1.2-1.7-1-0.7 0.2-1.2 1-1 1.7 0.2 0.7 0.9 1.2 1.7 1z"/>
				<path id="&lt;Path&gt;" class="s4" d="m129.6 95.1c1.1-0.2 1.8-1.3 1.5-2.4-0.3-1.1-1.4-1.8-2.5-1.5-1.1 0.3-1.7 1.4-1.5 2.5 0.3 1.1 1.4 1.7 2.5 1.4z"/>
				<path id="&lt;Path&gt;" class="s3" d="m155.4 177.7c1.2-0.3 1.9-1.5 1.6-2.7-0.3-1.1-1.5-1.9-2.7-1.6-1.2 0.3-1.9 1.5-1.6 2.7 0.3 1.2 1.5 1.9 2.7 1.6z"/>
				<path id="&lt;Path&gt;" class="s2" d="m141.2 82.9c0.7-0.2 1.2-1 1-1.7-0.2-0.8-1-1.2-1.7-1-0.8 0.2-1.2 0.9-1 1.7 0.2 0.7 0.9 1.2 1.7 1z"/>
				<path id="&lt;Path&gt;" class="s6" d="m102.3 218.6c0.9-0.3 1.5-1.2 1.3-2.2-0.3-0.9-1.2-1.5-2.2-1.2-0.9 0.2-1.5 1.1-1.2 2.1 0.2 0.9 1.2 1.5 2.1 1.3z"/>
				<path id="&lt;Path&gt;" class="s1" d="m86.5 202.8c1.8-0.5 2.8-2.3 2.4-4-0.5-1.8-2.3-2.9-4-2.4-1.8 0.4-2.9 2.2-2.4 4 0.4 1.8 2.2 2.8 4 2.4z"/>
				<path id="&lt;Path&gt;" class="s2" d="m82.9 193c1.2-0.3 1.9-1.5 1.6-2.7-0.3-1.2-1.5-1.9-2.6-1.6-1.2 0.3-1.9 1.5-1.6 2.7 0.3 1.1 1.5 1.9 2.6 1.6z"/>
				<path id="&lt;Path&gt;" class="s6" d="m68.5 159.1c1.5-0.4 2.3-1.9 2-3.3-0.4-1.4-1.9-2.3-3.3-2-1.5 0.4-2.3 1.9-2 3.3 0.4 1.5 1.9 2.3 3.3 2z"/>
				<path id="&lt;Path&gt;" class="s5" d="m147.7 76.5c1.3-0.4 2.1-1.7 1.8-3-0.3-1.3-1.7-2.1-3-1.8-1.3 0.4-2.1 1.7-1.7 3 0.3 1.3 1.6 2.1 2.9 1.8z"/>
				<path id="&lt;Path&gt;" class="s3" d="m76.9 200.5c0.9-0.2 1.4-1.1 1.2-1.9-0.2-0.8-1.1-1.4-1.9-1.1-0.9 0.2-1.4 1-1.1 1.9 0.2 0.8 1 1.3 1.8 1.1z"/>
				<path id="&lt;Path&gt;" class="s2" d="m97.7 91.4c0.7-0.2 1.2-1 1-1.8-0.2-0.8-1-1.2-1.8-1-0.8 0.2-1.2 1-1 1.7 0.2 0.8 1 1.3 1.8 1.1z"/>
				<path id="&lt;Path&gt;" class="s1" d="m81.5 139.8c1.2-0.3 1.9-1.5 1.6-2.7-0.3-1.2-1.5-1.9-2.7-1.6-1.2 0.3-1.9 1.5-1.6 2.7 0.3 1.2 1.5 1.9 2.7 1.6z"/>
				<path id="&lt;Path&gt;" class="s2" d="m135.3 156.1c0.7-0.1 1.1-0.9 0.9-1.6-0.1-0.7-0.9-1.2-1.6-1-0.7 0.2-1.2 0.9-1 1.7 0.2 0.7 0.9 1.1 1.7 0.9z"/>
				<path id="&lt;Path&gt;" class="s5" d="m100.3 167.7c0.5-0.1 0.9-0.7 0.7-1.3-0.1-0.5-0.7-0.9-1.3-0.7-0.5 0.1-0.9 0.7-0.7 1.3 0.1 0.5 0.7 0.9 1.3 0.7z"/>
				<path id="&lt;Path&gt;" class="s6" d="m127 182c0.7-0.2 1.2-1 1-1.7-0.2-0.7-0.9-1.2-1.7-1-0.7 0.2-1.1 0.9-0.9 1.7 0.1 0.7 0.9 1.1 1.6 1z"/>
				<path id="&lt;Path&gt;" class="s3" d="m61.8 179.5c0.9-0.2 1.4-1.1 1.2-2-0.2-0.9-1.1-1.4-2-1.2-0.9 0.2-1.5 1.1-1.2 2 0.2 0.9 1.1 1.4 2 1.2z"/>
				<path id="&lt;Path&gt;" class="s2" d="m57.4 185.8c0.9-0.2 1.4-1 1.2-1.9-0.3-0.8-1.1-1.3-2-1.1-0.8 0.2-1.3 1.1-1.1 1.9 0.2 0.8 1.1 1.3 1.9 1.1z"/>
				<path id="&lt;Path&gt;" class="s5" d="m65.2 148.7c0.6-0.2 0.9-0.8 0.8-1.4-0.2-0.6-0.8-1-1.4-0.9-0.6 0.2-1 0.8-0.8 1.4 0.1 0.6 0.8 1 1.4 0.9z"/>
				<path id="&lt;Path&gt;" class="s6" d="m64.5 139c0.7-0.2 1.2-1 1-1.8-0.2-0.8-1-1.2-1.8-1-0.7 0.2-1.2 1-1 1.7 0.2 0.8 1 1.3 1.8 1.1z"/>
				<path id="&lt;Path&gt;" class="s6" d="m77.1 186.4c1.4-0.3 2.3-1.8 1.9-3.3-0.3-1.5-1.8-2.4-3.3-2-1.5 0.4-2.3 1.9-2 3.4 0.4 1.4 1.9 2.3 3.4 1.9z"/>
				<path id="&lt;Path&gt;" class="s2" d="m71.3 134.2c1-0.2 1.6-1.2 1.3-2.2-0.2-1-1.2-1.6-2.2-1.3-0.9 0.2-1.5 1.2-1.3 2.2 0.3 1 1.3 1.6 2.2 1.3z"/>
				<path id="&lt;Path&gt;" class="s3" d="m67.1 128.7c0.7-0.2 1.1-0.9 0.9-1.6-0.1-0.7-0.8-1.1-1.5-0.9-0.7 0.1-1.1 0.8-1 1.5 0.2 0.7 0.9 1.1 1.6 1z"/>
				<path id="&lt;Path&gt;" class="s3" d="m83.4 103.1c0.8-0.1 1.2-0.9 1-1.6-0.2-0.7-0.9-1.1-1.6-1-0.7 0.2-1.2 1-1 1.7 0.2 0.7 0.9 1.1 1.6 0.9z"/>
				<path id="&lt;Path&gt;" class="s2" d="m157.4 113c0.4-0.2 0.7-0.6 0.6-1.1-0.1-0.4-0.6-0.7-1-0.6-0.5 0.1-0.8 0.6-0.6 1 0.1 0.5 0.5 0.8 1 0.7z"/>
				<path id="&lt;Path&gt;" class="s4" d="m88.3 134.8c0.5-0.1 0.8-0.6 0.7-1.1-0.1-0.5-0.6-0.8-1.1-0.7-0.5 0.1-0.8 0.7-0.7 1.2 0.1 0.5 0.6 0.8 1.1 0.6z"/>
				<path id="&lt;Path&gt;" class="s5" d="m87.2 187.1c0.7-0.2 1.2-0.9 1-1.6-0.2-0.7-0.9-1.1-1.6-0.9-0.7 0.1-1.1 0.9-1 1.6 0.2 0.7 0.9 1.1 1.6 0.9z"/>
				<path id="&lt;Path&gt;" class="s4" d="m75.9 190.2c0.7-0.2 1.1-0.9 0.9-1.5-0.1-0.7-0.8-1.1-1.5-1-0.7 0.2-1.1 0.9-0.9 1.6 0.1 0.7 0.8 1.1 1.5 0.9z"/>
				<path id="&lt;Path&gt;" class="s3" d="m81.9 174.4c0.5-0.1 0.8-0.7 0.7-1.2-0.1-0.5-0.7-0.8-1.2-0.7-0.5 0.1-0.8 0.7-0.7 1.2 0.1 0.5 0.7 0.8 1.2 0.7z"/>
				<path id="&lt;Path&gt;" class="s5" d="m195.1 59.9c4.8-1.2 7.8-6.2 6.5-11-1.2-4.9-6.1-7.8-11-6.6-4.9 1.2-7.8 6.2-6.6 11 1.3 4.9 6.2 7.8 11.1 6.6z"/>
				<path id="&lt;Path&gt;" class="s4" d="m127.6 56.9c1.3 1.1 3.2 0.9 4.3-0.5 1-1.3 0.8-3.2-0.5-4.3-1.3-1-3.2-0.8-4.3 0.5-1 1.3-0.8 3.2 0.5 4.3z"/>
				<path id="&lt;Path&gt;" class="s2" d="m134.8 56.1c0.8 0.6 1.9 0.5 2.5-0.2 0.6-0.8 0.5-1.9-0.3-2.5-0.7-0.6-1.8-0.5-2.4 0.3-0.7 0.7-0.5 1.8 0.2 2.4z"/>
				<path id="&lt;Path&gt;" class="s6" d="m170.7 31.8c1.1 0.9 2.8 0.7 3.8-0.4 0.9-1.2 0.7-2.9-0.4-3.8-1.2-0.9-2.9-0.8-3.8 0.4-1 1.2-0.8 2.8 0.4 3.8z"/>
				<path id="&lt;Path&gt;" class="s1" d="m152.2 41c1 0.8 2.4 0.7 3.2-0.3 0.7-1 0.6-2.4-0.4-3.1-0.9-0.8-2.3-0.7-3.1 0.3-0.8 1-0.6 2.4 0.3 3.1z"/>
				<path id="&lt;Path&gt;" class="s3" d="m164.3 93.6c0.8-0.2 1.3-1 1.1-1.9-0.2-0.8-1.1-1.3-1.9-1.1-0.8 0.2-1.3 1.1-1.1 1.9 0.2 0.8 1 1.3 1.9 1.1z"/>
				<path id="&lt;Path&gt;" class="s2" d="m115.3 78.5c0.9-0.2 1.4-1 1.2-1.9-0.2-0.8-1.1-1.3-1.9-1.1-0.9 0.2-1.4 1.1-1.2 1.9 0.2 0.8 1.1 1.3 1.9 1.1z"/>
				<path id="&lt;Path&gt;" class="s3" d="m176.4 50c0.7-0.1 1.1-0.8 0.9-1.5-0.1-0.7-0.8-1.1-1.5-0.9-0.7 0.1-1.1 0.8-0.9 1.5 0.2 0.7 0.8 1.1 1.5 0.9z"/>
				<path id="&lt;Path&gt;" class="s1" d="m149 121.9c0.9-0.2 1.4-1 1.2-1.9-0.2-0.8-1.1-1.3-1.9-1.1-0.9 0.2-1.4 1.1-1.1 1.9 0.2 0.8 1 1.3 1.8 1.1z"/>
				<path id="&lt;Path&gt;" class="s1" d="m110.4 136.5c0.8-0.2 1.3-1 1.1-1.9-0.2-0.8-1.1-1.3-1.9-1.1-0.8 0.2-1.3 1.1-1.1 1.9 0.2 0.8 1 1.3 1.9 1.1z"/>
				<path id="&lt;Path&gt;" class="s1" d="m195.7 163.5c1.5-0.3 2.4-1.8 2-3.3-0.4-1.4-1.9-2.3-3.3-2-1.5 0.4-2.4 1.9-2 3.4 0.4 1.4 1.8 2.3 3.3 1.9z"/>
				<path id="&lt;Path&gt;" class="s1" d="m183.3 139.4c0.7-0.2 1.1-0.9 0.9-1.5-0.2-0.7-0.9-1.1-1.5-1-0.7 0.2-1.1 0.9-1 1.6 0.2 0.7 0.9 1.1 1.6 0.9z"/>
				<path id="&lt;Path&gt;" class="s4" d="m129.3 212.1c1.3-0.3 2.1-1.7 1.7-3-0.3-1.3-1.6-2.1-3-1.8-1.3 0.4-2.1 1.7-1.8 3 0.4 1.3 1.7 2.2 3.1 1.8z"/>
				<path id="&lt;Path&gt;" class="s6" d="m87.7 115.7c1.2-0.3 1.9-1.5 1.6-2.7-0.3-1.2-1.5-1.9-2.7-1.6-1.2 0.3-1.9 1.5-1.6 2.7 0.3 1.2 1.5 1.9 2.7 1.6z"/>
				<path id="&lt;Path&gt;" class="s1" d="m182.1 193c0.7-0.2 1.1-0.9 0.9-1.6-0.1-0.6-0.8-1.1-1.5-0.9-0.7 0.2-1.1 0.9-0.9 1.6 0.2 0.6 0.8 1 1.5 0.9z"/>
				<path id="&lt;Path&gt;" class="s3" d="m62.7 69.1c0.7-0.2 1.1-0.9 0.9-1.6-0.1-0.7-0.9-1.2-1.6-1-0.7 0.2-1.2 0.9-1 1.6 0.2 0.8 0.9 1.2 1.7 1z"/>
				<path id="&lt;Path&gt;" class="s2" d="m83.5 218.1c0.6-0.2 1.1-0.9 0.9-1.6-0.2-0.7-0.9-1.1-1.6-0.9-0.6 0.2-1.1 0.9-0.9 1.5 0.2 0.7 0.9 1.1 1.6 1z"/>
				<path id="&lt;Path&gt;" class="s5" d="m146.2 216.1c0.5-0.1 0.8-0.6 0.7-1.1-0.1-0.5-0.6-0.8-1.1-0.6-0.5 0.1-0.8 0.6-0.7 1.1 0.1 0.5 0.6 0.8 1.1 0.6z"/>
				<path id="&lt;Path&gt;" class="s6" d="m49.5 163.3c0.7-0.1 1.1-0.8 0.9-1.4-0.2-0.6-0.8-1-1.4-0.9-0.7 0.2-1.1 0.9-0.9 1.5 0.2 0.6 0.8 1 1.4 0.8z"/>
				<path id="&lt;Path&gt;" class="s1" d="m130.5 192.6c1.2-0.3 1.9-1.5 1.6-2.7-0.3-1.1-1.5-1.9-2.7-1.6-1.2 0.3-1.9 1.5-1.6 2.7 0.3 1.2 1.5 1.9 2.7 1.6z"/>
				<path id="&lt;Path&gt;" class="s1" d="m61.7 109c0.6-0.2 0.9-0.7 0.8-1.3-0.2-0.5-0.8-0.9-1.3-0.7-0.6 0.1-0.9 0.7-0.8 1.2 0.2 0.6 0.7 0.9 1.3 0.8z"/>
				<path id="&lt;Path&gt;" class="s4" d="m207.1 162c1.3-0.3 2.1-1.7 1.8-3-0.4-1.3-1.7-2.1-3-1.8-1.4 0.3-2.1 1.7-1.8 3 0.3 1.3 1.7 2.1 3 1.8z"/>
				<path id="&lt;Path&gt;" class="s5" d="m116.8 225.6c0.7-0.1 1.1-0.8 0.9-1.5-0.1-0.7-0.8-1.1-1.5-0.9-0.7 0.1-1.1 0.8-0.9 1.5 0.2 0.7 0.8 1.1 1.5 0.9z"/>
				<path id="&lt;Path&gt;" class="s1" d="m100.2 64.9c1.2-0.3 1.9-1.5 1.6-2.7-0.3-1.2-1.5-1.9-2.7-1.6-1.2 0.3-1.9 1.5-1.6 2.7 0.3 1.2 1.5 1.9 2.7 1.6z"/>
				<path id="&lt;Path&gt;" class="s4" d="m100.8 205c1.1-0.3 1.7-1.4 1.5-2.4-0.3-1.1-1.4-1.7-2.4-1.5-1.1 0.3-1.7 1.4-1.4 2.4 0.2 1.1 1.3 1.7 2.3 1.5z"/>
				<path id="&lt;Path&gt;" class="s1" d="m107.1 112.2c1.2-0.3 1.9-1.5 1.6-2.6-0.3-1.2-1.5-1.8-2.6-1.6-1.2 0.3-1.9 1.5-1.6 2.7 0.3 1.1 1.5 1.8 2.6 1.5z"/>
				<path id="&lt;Path&gt;" class="s6" d="m68.1 199.8c0.9-0.3 1.5-1.2 1.3-2.1-0.3-1-1.2-1.5-2.2-1.3-0.9 0.2-1.4 1.2-1.2 2.1 0.2 0.9 1.2 1.5 2.1 1.3z"/>
				<path id="&lt;Path&gt;" class="s3" d="m93.4 248.3c0.6-0.2 0.9-0.8 0.8-1.4-0.2-0.5-0.8-0.9-1.3-0.7-0.6 0.1-1 0.7-0.8 1.3 0.1 0.6 0.7 0.9 1.3 0.8z"/>
				<path id="&lt;Path&gt;" class="s2" d="m139 235.9c0.5-0.2 0.9-0.7 0.7-1.3-0.1-0.5-0.7-0.8-1.2-0.7-0.5 0.1-0.9 0.7-0.7 1.2 0.1 0.6 0.7 0.9 1.2 0.8z"/>
				<path id="&lt;Path&gt;" class="s6" d="m68 78.2c0.5-0.2 0.9-0.7 0.7-1.3-0.1-0.5-0.7-0.9-1.2-0.7-0.6 0.1-0.9 0.7-0.7 1.2 0.1 0.6 0.7 0.9 1.2 0.8z"/>
				<path id="&lt;Path&gt;" class="s6" d="m170.8 219.1c0.9-0.2 1.5-1.2 1.2-2.1-0.2-1-1.2-1.5-2.1-1.3-1 0.3-1.5 1.2-1.3 2.2 0.3 0.9 1.2 1.5 2.2 1.2z"/>
				<path id="&lt;Path&gt;" class="s4" d="m128 236.7c0.5-0.1 0.8-0.6 0.7-1.1-0.2-0.5-0.6-0.7-1.1-0.6-0.5 0.1-0.8 0.6-0.7 1.1 0.2 0.4 0.6 0.7 1.1 0.6z"/>
				<path id="&lt;Path&gt;" class="s3" d="m66.5 226.9c0.3-0.1 0.5-0.4 0.4-0.8 0-0.4-0.4-0.6-0.8-0.5-0.4 0.1-0.6 0.5-0.5 0.8 0.1 0.4 0.5 0.6 0.9 0.5z"/>
				<path id="&lt;Path&gt;" class="s3" d="m190.7 202.2c0.4-0.1 0.7-0.6 0.6-1-0.1-0.5-0.6-0.8-1.1-0.7-0.4 0.1-0.7 0.6-0.6 1.1 0.1 0.5 0.6 0.7 1.1 0.6z"/>
				<path id="&lt;Path&gt;" class="s6" d="m153.6 227c0.4-0.1 0.6-0.5 0.5-1-0.1-0.4-0.5-0.6-0.9-0.5-0.4 0.1-0.7 0.5-0.6 0.9 0.1 0.4 0.6 0.7 1 0.6z"/>
				<path id="&lt;Path&gt;" class="s1" d="m112.6 31.3c0.4-0.1 0.7-0.5 0.6-0.9-0.1-0.4-0.5-0.6-0.9-0.5-0.4 0.1-0.6 0.4-0.5 0.8 0.1 0.4 0.5 0.7 0.8 0.6z"/>
			</g>
		</g>
	</g>
</svg>